<svg xmlns:ev="http://www.w3.org/2001/xml-events" height="804" xmlns:xlink="http://www.w3.org/1999/xlink" width="1132" xmlns="http://www.w3.org/2000/svg" viewBox="0 0 1132 804"><style type="text/css"><![CDATA[
.st2 {fill:#1f6391;font-family:Arial;font-size:14pt}
.st1 {fill:#1f6391;font-family:Arial;font-size:16pt}
.st3 {font-family:Symbol}
]]></style><defs/><g transform="translate(5,5)" id="page1"><rect fill="#ffffff" x="0" stroke="#808080" height="794" y="0" width="1123"/><path fill="#ffffff" stroke="#2d85c1" transform="translate(431.26,357.35)" id="shape1" d="M0,0L208,0L208,56.5L0,56.5L0,0z" stroke-width="4"/><path fill="none" stroke="#236ea1" transform="translate(535.26,357.35)" id="shape2" stroke-width="2.66667" d="M0,0L0,56.5"/><g transform="translate(397,298)" id="shape3"><path fill="none" stroke="#236ea1" stroke-width="2.66667" d="M0,0L26.7,49.7"/><path fill="none" stroke="#236ea1" stroke-linecap="round" stroke-width="2.66667" d="M27.7,41.1L28,52L19,45.7" stroke-linejoin="round"/></g><g transform="translate(359,269)" id="shape4"><text class="st1"><tspan x="14.4" y="19.6">Q1</tspan></text></g><g transform="translate(666,298)" id="shape5"><path fill="none" stroke="#236ea1" stroke-width="2.66667" d="M0,0L-21.2,46.8"/><path fill="none" stroke="#236ea1" stroke-linecap="round" stroke-width="2.66667" d="M-13.8,42.4L-22.3,49.3L-22.8,38.3" stroke-linejoin="round"/></g><g transform="translate(646,271.5)" id="shape6"><text class="st1"><tspan x="4.8" y="17.1">Q3</tspan></text></g><g transform="translate(535,291)" id="shape7"><path fill="none" stroke="#236ea1" stroke-width="2.66667" d="M0,0L0,50.3"/><path fill="none" stroke="#236ea1" stroke-linecap="round" stroke-width="2.66667" d="M4.9,43.2L0,53L-4.9,43.2" stroke-linejoin="round"/></g><g transform="translate(480.26,267.5)" id="shape8"><text class="st2"><tspan x="25.6" y="17.5">median</tspan></text></g><path fill="none" stroke="#236ea1" stroke-dasharray="6,4" transform="matrix(-1,0,0,-1,423.3,386)" id="shape9" stroke-width="2" d="M0,0L87.3,0"/><path fill="none" stroke="#236ea1" stroke-dasharray="6,4" transform="matrix(-1,0,0,-1,728.7,386)" id="shape10" stroke-width="2" d="M0,0L82.7,0"/><path fill="none" stroke="#236ea1" transform="matrix(0,1,-1,0,334,381)" id="shape11" stroke-width="2.66667" d="M0,0L11,0"/><path fill="none" stroke="#236ea1" transform="matrix(0,1,-1,0,732,380)" id="shape12" stroke-width="2.66667" d="M0,0L11,0"/><g transform="translate(232.5,417.5)" id="shape13"><text class="st1"><tspan x="4.8" y="16.7">Q1 - </tspan><tspan class="st3">a </tspan><tspan>x IQR</tspan></text></g><g transform="translate(696.5,417.5)" id="shape14"><text class="st1"><tspan x="4.8" y="16.7">Q3 - </tspan><tspan class="st3">a </tspan><tspan>x IQR</tspan></text></g><path fill="none" stroke="#236ea1" transform="translate(431,438)" id="shape15" stroke-width="2.66667" d="M0,0L208,0"/><path fill="none" stroke="#236ea1" transform="matrix(0,1,-1,0,431,433)" id="shape16" stroke-width="2.66667" d="M0,0L11,0"/><path fill="none" stroke="#236ea1" transform="matrix(0,1,-1,0,639,433)" id="shape17" stroke-width="2.66667" d="M0,0L11,0"/><g transform="translate(507.26,448)" id="shape18"><text class="st1"><tspan x="8.8" y="20.6">IQR</tspan></text></g><g transform="matrix(-0.79,-0.61,0.61,-0.79,767,416)" id="shape19"><path fill="none" stroke="#236ea1" stroke-width="2" d="M0,0L35.8,0"/><path fill="none" stroke="#236ea1" stroke-linecap="round" stroke-width="2" d="M29.3,-4.2L37.8,0L29.3,4.2" stroke-linejoin="round"/></g><g transform="matrix(0.81,-0.59,0.59,0.81,293,416)" id="shape20"><path fill="none" stroke="#236ea1" stroke-width="2" d="M0,0L40.2,0"/><path fill="none" stroke="#236ea1" stroke-linecap="round" stroke-width="2" d="M33.7,-4.2L42.2,0L33.7,4.2" stroke-linejoin="round"/></g></g></svg>